<svg xmlns="http://www.w3.org/2000/svg" aria-hidden="true" style="width:0;height:0;position:absolute;overflow:hidden"><defs><symbol id="icon-dump" viewBox="0 0 32 32"><path d="M32 16c0 8.837-7.163 16-16 16S0 24.837 0 16 7.163 0 16 0s16 7.163 16 16z"/><path stroke-linecap="round" stroke-linejoin="round" stroke-width="1.684" d="M13.684 9.053h4.632m-9.263 2.315h13.895m-1.544 0-.541 8.12c-.081 1.218-.122 1.827-.385 2.289a2.322 2.322 0 0 1-1.002.938c-.478.232-1.089.232-2.31.232h-2.33c-1.221 0-1.832 0-2.31-.232a2.31 2.31 0 0 1-1.002-.938c-.263-.462-.304-1.071-.385-2.289l-.541-8.12m3.858 3.474v3.86m3.088-3.86v3.86"/></symbol><symbol id="icon-light-theme" viewBox="0 0 32 32"><path d="M1.524 14.857a7.619 7.619 0 0 1 7.619-7.619h15.238a7.619 7.619 0 1 1 0 15.238H9.143a7.619 7.619 0 0 1-7.619-7.619z"/><path d="M9.143 21.714A6.857 6.857 0 1 0 9.143 8a6.857 6.857 0 0 0 0 13.714z"/></symbol><symbol id="icon-Vector" viewBox="0 0 55 32"><path fill="#fff" style="fill:var(--color1,#fff)" d="M1.091 25.309 25.527.8c.291-.291.606-.496.945-.617.339-.122.703-.183 1.091-.183s.752.061 1.091.183c.339.12.655.326.946.617l24.509 24.509c.679.679 1.018 1.527 1.018 2.545s-.364 1.891-1.091 2.618c-.727.727-1.576 1.091-2.545 1.091s-1.818-.364-2.545-1.091L27.564 9.09 6.182 30.472c-.679.679-1.515 1.018-2.508 1.018-.995 0-1.856-.364-2.583-1.091S0 28.823 0 27.854c0-.97.364-1.818 1.091-2.545z"/></symbol><symbol id="icon-lock" viewBox="0 0 32 32"><path stroke-linecap="round" stroke-linejoin="round" stroke-width="2.286" d="M22.667 14.667v-4a6.667 6.667 0 0 0-13.334 0v4M10.4 28h11.2c2.24 0 3.36 0 4.216-.436a3.991 3.991 0 0 0 1.748-1.748C28 24.96 28 23.84 28 21.6v-.533c0-2.24 0-3.36-.436-4.216a3.991 3.991 0 0 0-1.748-1.748c-.856-.436-1.976-.436-4.216-.436H10.4c-2.24 0-3.36 0-4.216.436a3.996 3.996 0 0 0-1.748 1.748C4 17.707 4 18.827 4 21.067v.533c0 2.24 0 3.36.436 4.216a3.991 3.991 0 0 0 1.748 1.748C7.04 28 8.16 28 10.4 28z"/></symbol><symbol id="icon-logo" viewBox="0 0 32 32"><path d="m0 0 16.343 16.171L32 32V0H0z"/><path d="M4.457 4.229 16.4 16.058l11.257 11.486h-23.2V4.23z"/><path d="M27.733 27.618 15.79 15.789 4.533 4.303h23.2v23.314z"/><path d="m9.257 9.029 13.6 13.6h-13.6v-13.6z"/><path d="m9.257 9.029 13.6 13.6v-13.6h-13.6z"/></symbol><symbol id="icon-mail" viewBox="0 0 32 32"><path stroke-linecap="round" stroke-linejoin="round" stroke-width="2.286" d="m28.666 24-8.857-8m-7.619 0-8.857 8M2.667 9.333l10.887 7.621c.882.617 1.322.926 1.802 1.045.423.106.866.106 1.29 0 .479-.12.92-.428 1.802-1.045l10.887-7.621M9.067 26.667h13.867c2.24 0 3.36 0 4.216-.436a3.996 3.996 0 0 0 1.748-1.748c.436-.856.436-1.976.436-4.216v-8.533c0-2.24 0-3.36-.436-4.216A3.991 3.991 0 0 0 27.15 5.77c-.856-.436-1.976-.436-4.216-.436H9.067c-2.24 0-3.36 0-4.216.436a3.991 3.991 0 0 0-1.748 1.748c-.436.856-.436 1.976-.436 4.216v8.533c0 2.24 0 3.36.436 4.216a3.996 3.996 0 0 0 1.748 1.748c.856.436 1.976.436 4.216.436z"/></symbol><symbol id="icon-menu-hamburger" viewBox="0 0 32 32"><path stroke-linecap="round" stroke-linejoin="round" stroke-width="2.286" d="M22.667 13.333H4M28 8H4m24 10.667H4M22.667 24H4"/></symbol><symbol id="icon-scroll-up" viewBox="0 0 32 32"><circle cx="32" cy="32" r="32" fill="#4F2EE8" fill-opacity=".3"/><circle cx="32" cy="32" r="27" fill="#4F2EE8"/><path d="m23.375 34.7 8.4-8.425c.1-.1.208-.17.325-.212a1.1 1.1 0 0 1 .375-.063c.133 0 .258.021.375.063a.871.871 0 0 1 .325.212L41.6 34.7c.233.233.35.525.35.875s-.125.65-.375.9a1.2 1.2 0 0 1-.875.375 1.2 1.2 0 0 1-.875-.375l-7.35-7.35-7.35 7.35c-.233.233-.52.35-.862.35-.342 0-.638-.125-.888-.375a1.2 1.2 0 0 1-.375-.875 1.2 1.2 0 0 1 .375-.875Z" fill="#fff"/></symbol><symbol id="icon-user" viewBox="0 0 32 32"><path d="M32 16c0 8.837-7.163 16-16 16S0 24.837 0 16 7.163 0 16 0s16 7.163 16 16z"/><path d="M10.523 22.847a5.477 5.477 0 1 1 10.954 0H10.522zM16 16.685c-2.27 0-4.108-1.838-4.108-4.108S13.73 8.469 16 8.469c2.27 0 4.108 1.838 4.108 4.108S18.27 16.685 16 16.685z"/></symbol><symbol id="icon-arrow-right" viewBox="0 0 32 32"><path stroke-linecap="round" stroke-linejoin="round" stroke-width="3.2" d="M5.333 16h21.333m.001 0-8-8m8 8-8 8"/></symbol><symbol id="icon-close" viewBox="0 0 32 32"><path stroke-linecap="round" stroke-linejoin="round" stroke-width="3.429" d="M24 8 8 24M8 8l16 16"/></symbol><symbol id="icon-dark-theme" viewBox="0 0 32 32"><path d="M0 14.909a7.273 7.273 0 0 1 7.273-7.273h14.545a7.273 7.273 0 1 1 0 14.546H7.273A7.273 7.273 0 0 1 0 14.909z"/><path d="M21.818 21.455a6.545 6.545 0 1 0 0-13.09 6.545 6.545 0 0 0 0 13.09z"/></symbol><symbol id="logotype" viewBox="0 0 34 32"><path fill="#f6f6f6" d="m0 0 16.343 16.171L32 32V0H0z" style="fill:var(--color1,#f6f6f6)"/><path fill="#f6f6f6" d="M4.457 4.229 16.4 16.058l11.257 11.486h-23.2V4.23z" style="fill:var(--color1,#f6f6f6)"/><path fill="#4f2ee8" d="M27.733 27.618 15.79 15.789 4.533 4.303h23.2v23.314z" style="fill:var(--color2,#4f2ee8)"/><path fill="#4f2ee8" d="m9.257 9.029 13.6 13.6h-13.6v-13.6z" style="fill:var(--color2,#4f2ee8)"/><path fill="#f6f6f6" d="m9.257 9.029 13.6 13.6v-13.6h-13.6z" style="fill:var(--color1,#f6f6f6)"/></symbol><symbol id="uil-cart" viewBox="0 0 32 32"><path d="M25.333 9.333h-4V8a5.332 5.332 0 1 0-10.666 0v1.333h-4a1.335 1.335 0 0 0-1.334 1.334v14.667a4.003 4.003 0 0 0 4 4h13.333a4.003 4.003 0 0 0 4-4V10.667a1.335 1.335 0 0 0-1.334-1.334zM13.333 8a2.668 2.668 0 0 1 5.334 0v1.333h-5.333V8zM24 25.333a1.335 1.335 0 0 1-1.334 1.334H9.333a1.335 1.335 0 0 1-1.334-1.334V12h2.667v1.333a1.335 1.335 0 0 0 2.277.943c.25-.251.391-.589.391-.943V12h5.333v1.333a1.333 1.333 0 1 0 2.667 0V12h2.667v13.333z"/></symbol><symbol id="bookshelf" viewBox="0 0 78 14"><path d="M9.702 3.733c0-2.07-1.53-3.24-4.176-3.24H0v12.87h5.832c2.664 0 4.374-1.278 4.374-3.762 0-1.926-1.152-2.916-2.502-3.15v-.036c1.062-.36 1.998-1.098 1.998-2.682Zm-7.56 2.088v-3.51H5.58c1.278 0 1.98.63 1.98 1.764s-.576 1.746-2.106 1.746H2.142Zm0 1.602h3.762c1.35 0 2.16.738 2.16 2.052 0 1.206-.558 2.07-2.394 2.07H2.142V7.423ZM15.702 13.633c-2.88 0-4.626-1.998-4.626-4.86s1.746-4.86 4.626-4.86c2.88 0 4.626 1.998 4.626 4.86s-1.746 4.86-4.626 4.86Zm0-1.548c1.8 0 2.736-1.422 2.736-3.312 0-1.908-.936-3.312-2.736-3.312-1.8 0-2.736 1.404-2.736 3.312 0 1.89.936 3.312 2.736 3.312ZM25.774 13.633c-2.88 0-4.626-1.998-4.626-4.86s1.746-4.86 4.626-4.86c2.88 0 4.626 1.998 4.626 4.86s-1.746 4.86-4.626 4.86Zm0-1.548c1.8 0 2.736-1.422 2.736-3.312 0-1.908-.936-3.312-2.736-3.312-1.8 0-2.736 1.404-2.736 3.312 0 1.89.936 3.312 2.736 3.312ZM31.706.493v12.87h1.89v-3.33l1.278-1.206 2.898 4.536h2.268l-3.87-5.778 3.492-3.42H37.34l-3.744 3.69V.493h-1.89ZM44.596 7.801c-1.332-.306-2.358-.378-2.358-1.314 0-.648.612-1.08 1.746-1.08 1.476 0 1.836.738 1.962 1.458h1.836c-.126-1.602-1.314-2.952-3.816-2.952-2.304 0-3.636 1.206-3.636 2.718 0 2.088 1.98 2.376 3.438 2.718 1.35.324 2.448.414 2.448 1.566 0 .576-.558 1.224-1.872 1.224-1.944 0-2.376-.846-2.466-1.836h-1.836c.09 1.944 1.368 3.33 4.338 3.33 2.232 0 3.744-1.098 3.744-2.862 0-2.196-1.836-2.574-3.528-2.97ZM54.304 3.913c-1.548 0-2.502.72-2.988 1.44h-.036V.493h-1.89v12.87h1.89V7.765c0-1.368.99-2.25 2.376-2.25 1.314 0 1.836.792 1.836 2.034v5.814H57.4V7.009c0-2.106-1.35-3.096-3.096-3.096ZM63.196 12.085c-1.674 0-2.664-1.278-2.664-2.826h7.056c0-3.276-1.458-5.346-4.428-5.346-2.772 0-4.518 1.872-4.518 4.86 0 2.88 1.746 4.86 4.608 4.86 2.358 0 3.726-1.332 4.194-3.078h-1.89c-.162.558-.792 1.53-2.358 1.53Zm-.036-6.678c1.53 0 2.538 1.026 2.538 2.448h-5.166c0-1.422 1.098-2.448 2.628-2.448ZM68.92.493v12.87h1.908V.493H68.92ZM77.001 2.041V.493a6.631 6.631 0 0 0-1.26-.126c-1.512 0-2.34.684-2.34 2.628v1.17h-1.314v1.548h1.314v7.65h1.908v-7.65h1.692V4.165H75.31V3.157c0-1.044.468-1.17 1.692-1.116Z"/></symbol></defs></svg>